<svg xmlns="http://www.w3.org/2000/svg" viewBox="0 0 1400 1000" width="1400" height="1000">
  <defs>
    <!-- Flagstone floor texture -->
    <filter id="flagstoneFilter" x="0%" y="0%" width="100%" height="100%">
      <feTurbulence type="fractalNoise" baseFrequency="0.025" numOctaves="5" seed="99" result="noise"/>
      <feColorMatrix type="matrix"
        values="0.15 0.1 0 0 0.10
                0.15 0.1 0 0 0.10
                0.15 0.1 0 0 0.10
                0    0   0 1 0" in="noise" result="stoneShade"/>
      <feComposite in="stoneShade" in2="SourceGraphic" operator="multiply" result="textured"/>
      <feTurbulence type="turbulence" baseFrequency="0.002" numOctaves="2" seed="3" result="warp"/>
      <feDisplacementMap in="textured" in2="warp" scale="3" xChannelSelector="R" yChannelSelector="G"/>
    </filter>

    <!-- Stone wall crack texture -->
    <filter id="wallFilter" x="0%" y="0%" width="100%" height="100%">
      <feTurbulence type="fractalNoise" baseFrequency="0.03" numOctaves="7" seed="55" result="noise"/>
      <feColorMatrix type="matrix"
        values="0.2 0.1 0 0 0.15
                0.2 0.1 0 0 0.15
                0.2 0.1 0 0 0.15
                0   0   0 1 0" in="noise" result="stoneColor"/>
      <feComposite in="stoneColor" in2="SourceGraphic" operator="multiply"/>
    </filter>

    <!-- Torch glow filter -->
    <filter id="torchGlow" x="-150%" y="-150%" width="400%" height="400%">
      <feGaussianBlur stdDeviation="22" result="blur"/>
      <feMerge>
        <feMergeNode in="blur"/>
        <feMergeNode in="blur"/>
        <feMergeNode in="SourceGraphic"/>
      </feMerge>
    </filter>

    <!-- Soft shadow -->
    <filter id="shadow" x="-20%" y="-20%" width="140%" height="140%">
      <feDropShadow dx="2" dy="4" stdDeviation="5" flood-color="#000000" flood-opacity="0.7"/>
    </filter>

    <!-- Rust stain filter -->
    <filter id="rustFilter" x="-10%" y="-10%" width="120%" height="120%">
      <feTurbulence type="fractalNoise" baseFrequency="0.08" numOctaves="3" seed="22" result="noise"/>
      <feColorMatrix type="matrix"
        values="0.5 0 0 0 0.45
                0.2 0 0 0 0.22
                0   0 0 0 0.05
                0   0 0 0.7 0" in="noise" result="rustColor"/>
      <feBlend in="SourceGraphic" in2="rustColor" mode="multiply"/>
    </filter>

    <!-- Irregular flagstone pattern -->
    <pattern id="flagstones" x="0" y="0" width="210" height="140" patternUnits="userSpaceOnUse">
      <rect width="210" height="140" fill="#2E2B27"/>
      <rect x="3" y="3" width="95" height="62" rx="2" fill="#3D3A35"/>
      <rect x="102" y="3" width="105" height="62" rx="2" fill="#363330"/>
      <rect x="3" y="69" width="50" height="66" rx="2" fill="#38352F"/>
      <rect x="57" y="69" width="95" height="66" rx="2" fill="#3A3733"/>
      <rect x="156" y="69" width="51" height="66" rx="2" fill="#353230"/>
      <rect y="66" width="210" height="4" fill="#1A1815"/>
      <rect x="98" y="0" width="5" height="66" fill="#1A1815"/>
      <rect x="53" y="66" width="5" height="74" fill="#1A1815"/>
      <rect x="152" y="66" width="5" height="74" fill="#1A1815"/>
      <line x1="20" y1="10" x2="25" y2="55" stroke="#1E1C18" stroke-width="0.6" opacity="0.8"/>
      <line x1="130" y1="5" x2="135" y2="50" stroke="#1E1C18" stroke-width="0.5" opacity="0.7"/>
      <line x1="75" y1="75" x2="80" y2="128" stroke="#1E1C18" stroke-width="0.6" opacity="0.8"/>
      <line x1="170" y1="80" x2="168" y2="125" stroke="#1E1C18" stroke-width="0.5" opacity="0.7"/>
      <circle cx="8" cy="8" r="4" fill="#2A3520" opacity="0.5"/>
      <circle cx="190" cy="72" r="3" fill="#283218" opacity="0.4"/>
      <circle cx="60" cy="130" r="5" fill="#2A3520" opacity="0.5"/>
    </pattern>

    <!-- Thick stone block wall pattern -->
    <pattern id="dungeonWall" x="0" y="0" width="175" height="90" patternUnits="userSpaceOnUse">
      <rect width="175" height="90" fill="#252220"/>
      <rect x="3" y="3" width="82" height="40" rx="1" fill="#302D2A"/>
      <rect x="89" y="3" width="83" height="40" rx="1" fill="#2A2724"/>
      <rect x="3" y="47" width="40" height="40" rx="1" fill="#2D2A27"/>
      <rect x="47" y="47" width="82" height="40" rx="1" fill="#302D28"/>
      <rect x="133" y="47" width="40" height="40" rx="1" fill="#282524"/>
      <rect y="43" width="175" height="5" fill="#141210"/>
      <rect x="85" y="0" width="5" height="43" fill="#141210"/>
      <rect x="43" y="43" width="5" height="47" fill="#141210"/>
      <rect x="129" y="43" width="5" height="47" fill="#141210"/>
      <circle cx="35" cy="22" r="3" fill="#1C1A18" opacity="0.7"/>
      <circle cx="130" cy="18" r="2" fill="#1C1A18" opacity="0.6"/>
      <circle cx="20" cy="65" r="2.5" fill="#1C1A18" opacity="0.7"/>
      <circle cx="100" cy="72" r="2" fill="#1C1A18" opacity="0.6"/>
      <line x1="12" y1="5" x2="18" y2="42" stroke="#181614" stroke-width="0.7" opacity="0.9"/>
      <line x1="155" y1="48" x2="162" y2="85" stroke="#181614" stroke-width="0.6" opacity="0.8"/>
    </pattern>

    <!-- Torch light gradients — limited pools of orange -->
    <radialGradient id="torchPool1" cx="50%" cy="50%" r="50%">
      <stop offset="0%" stop-color="#FF9922" stop-opacity="0.65"/>
      <stop offset="25%" stop-color="#FF6600" stop-opacity="0.40"/>
      <stop offset="55%" stop-color="#CC3300" stop-opacity="0.18"/>
      <stop offset="100%" stop-color="#440000" stop-opacity="0"/>
    </radialGradient>
    <radialGradient id="torchPool2" cx="50%" cy="50%" r="50%">
      <stop offset="0%" stop-color="#FFBB44" stop-opacity="0.60"/>
      <stop offset="30%" stop-color="#FF7700" stop-opacity="0.35"/>
      <stop offset="60%" stop-color="#CC4400" stop-opacity="0.15"/>
      <stop offset="100%" stop-color="#440000" stop-opacity="0"/>
    </radialGradient>

    <!-- Water puddle gradient -->
    <radialGradient id="waterPuddle1" cx="40%" cy="35%" r="65%">
      <stop offset="0%" stop-color="#4A6A7A" stop-opacity="0.7"/>
      <stop offset="50%" stop-color="#2A4A5A" stop-opacity="0.5"/>
      <stop offset="100%" stop-color="#1A2A35" stop-opacity="0.3"/>
    </radialGradient>
    <radialGradient id="waterPuddle2" cx="45%" cy="40%" r="60%">
      <stop offset="0%" stop-color="#3A5A6A" stop-opacity="0.6"/>
      <stop offset="60%" stop-color="#1A3A4A" stop-opacity="0.4"/>
      <stop offset="100%" stop-color="#0A1A22" stop-opacity="0.2"/>
    </radialGradient>

    <!-- Cell bar gradient -->
    <linearGradient id="ironBar" x1="0%" y1="0%" x2="100%" y2="0%">
      <stop offset="0%" stop-color="#2A2A2A"/>
      <stop offset="30%" stop-color="#555550"/>
      <stop offset="70%" stop-color="#3A3A38"/>
      <stop offset="100%" stop-color="#1A1A1A"/>
    </linearGradient>

    <!-- Heavy door gradient -->
    <linearGradient id="doorGrad" x1="0%" y1="0%" x2="100%" y2="0%">
      <stop offset="0%" stop-color="#3A2810"/>
      <stop offset="40%" stop-color="#5A4020"/>
      <stop offset="100%" stop-color="#2A1A08"/>
    </linearGradient>

    <!-- Wall depth gradients -->
    <linearGradient id="wallShadowTop" x1="0%" y1="0%" x2="0%" y2="100%">
      <stop offset="0%" stop-color="#080604" stop-opacity="0.95"/>
      <stop offset="100%" stop-color="#080604" stop-opacity="0"/>
    </linearGradient>
    <linearGradient id="wallShadowLeft" x1="0%" y1="0%" x2="100%" y2="0%">
      <stop offset="0%" stop-color="#080604" stop-opacity="0.95"/>
      <stop offset="100%" stop-color="#080604" stop-opacity="0"/>
    </linearGradient>
    <linearGradient id="wallShadowRight" x1="100%" y1="0%" x2="0%" y2="0%">
      <stop offset="0%" stop-color="#080604" stop-opacity="0.95"/>
      <stop offset="100%" stop-color="#080604" stop-opacity="0"/>
    </linearGradient>

    <!-- Overall darkness vignette -->
    <radialGradient id="darkness" cx="50%" cy="50%" r="60%">
      <stop offset="0%" stop-color="#0A0806" stop-opacity="0"/>
      <stop offset="55%" stop-color="#0A0806" stop-opacity="0.35"/>
      <stop offset="100%" stop-color="#030201" stop-opacity="0.85"/>
    </radialGradient>

    <!-- Grid -->
    <pattern id="grid" x="0" y="0" width="70" height="70" patternUnits="userSpaceOnUse">
      <path d="M 70 0 L 0 0 0 70" fill="none" stroke="rgba(255,255,255,0.07)" stroke-width="1"/>
    </pattern>
  </defs>

  <!-- ===================== WALLS ===================== -->
  <rect x="0" y="0" width="1400" height="1000" fill="url(#dungeonWall)" filter="url(#wallFilter)"/>

  <!-- Wall 3D face inner edges -->
  <rect x="110" y="110" width="1180" height="22" fill="#383430" opacity="0.8"/>
  <rect x="110" y="110" width="22" height="780" fill="#383430" opacity="0.8"/>
  <rect x="1268" y="110" width="22" height="780" fill="#1A1815" opacity="0.8"/>
  <rect x="110" y="868" width="1180" height="22" fill="#1A1815" opacity="0.8"/>

  <!-- ===================== FLOOR ===================== -->
  <rect x="132" y="132" width="1136" height="736" fill="url(#flagstones)" filter="url(#flagstoneFilter)"/>

  <!-- Wall inner shadow -->
  <rect x="132" y="132" width="1136" height="80" fill="url(#wallShadowTop)"/>
  <rect x="132" y="132" width="80" height="736" fill="url(#wallShadowLeft)"/>
  <rect x="1188" y="132" width="80" height="736" fill="url(#wallShadowRight)"/>

  <!-- ===================== TORCH LIGHT POOLS ===================== -->
  <!-- Torch 1: NW -->
  <ellipse cx="260" cy="240" rx="220" ry="180" fill="url(#torchPool1)" opacity="0.95"/>
  <rect x="132" y="225" width="35" height="7" rx="2" fill="#3A3530"/>
  <rect x="164" y="215" width="9" height="22" rx="2" fill="#4A4540"/>
  <rect x="163" y="204" width="11" height="19" rx="2" fill="#5A4A2A"/>
  <ellipse cx="168" cy="205" rx="8" ry="12" fill="#0A0806" opacity="0.6"/>
  <ellipse cx="168" cy="202" rx="9" ry="13" fill="#FF7700" opacity="0.85" filter="url(#torchGlow)"/>
  <ellipse cx="168" cy="202" rx="6" ry="9" fill="#FFAA22" opacity="0.9"/>
  <ellipse cx="168" cy="204" rx="3.5" ry="5.5" fill="#FFEE66" opacity="0.85"/>
  <ellipse cx="167" cy="206" rx="2" ry="3" fill="#FFFFFF" opacity="0.5"/>

  <!-- Torch 2: East mid -->
  <ellipse cx="1140" cy="490" rx="220" ry="200" fill="url(#torchPool2)" opacity="0.90"/>
  <rect x="1234" y="475" width="35" height="7" rx="2" fill="#3A3530"/>
  <rect x="1231" y="465" width="9" height="22" rx="2" fill="#4A4540"/>
  <rect x="1230" y="454" width="11" height="19" rx="2" fill="#5A4A2A"/>
  <ellipse cx="1235" cy="454" rx="8" ry="12" fill="#0A0806" opacity="0.6"/>
  <ellipse cx="1235" cy="452" rx="9" ry="13" fill="#FF7700" opacity="0.85" filter="url(#torchGlow)"/>
  <ellipse cx="1235" cy="452" rx="6" ry="9" fill="#FFAA22" opacity="0.9"/>
  <ellipse cx="1235" cy="454" rx="3.5" ry="5.5" fill="#FFEE66" opacity="0.85"/>

  <!-- Torch 3: South corridor -->
  <ellipse cx="700" cy="820" rx="200" ry="160" fill="url(#torchPool1)" opacity="0.90"/>
  <rect x="684" y="868" width="7" height="35" rx="2" fill="#3A3530"/>
  <rect x="681" y="852" width="13" height="22" rx="2" fill="#5A4A2A"/>
  <ellipse cx="687" cy="852" rx="9" ry="13" fill="#FF7700" opacity="0.85" filter="url(#torchGlow)"/>
  <ellipse cx="687" cy="852" rx="6" ry="9" fill="#FFAA22" opacity="0.9"/>
  <ellipse cx="687" cy="854" rx="3.5" ry="5.5" fill="#FFEE66" opacity="0.85"/>

  <!-- ===================== WATER PUDDLES ===================== -->
  <ellipse cx="1050" cy="220" rx="85" ry="40" fill="url(#waterPuddle1)"/>
  <ellipse cx="1048" cy="218" rx="72" ry="33" fill="none" stroke="#5A7A8A" stroke-width="0.8" opacity="0.4"/>
  <ellipse cx="1035" cy="214" rx="22" ry="8" fill="#6A9AAA" opacity="0.25"/>
  <ellipse cx="1062" cy="220" rx="12" ry="5" fill="#5A8A9A" opacity="0.20"/>

  <ellipse cx="560" cy="560" rx="55" ry="28" fill="url(#waterPuddle2)"/>
  <ellipse cx="558" cy="558" rx="44" ry="22" fill="none" stroke="#4A6A7A" stroke-width="0.7" opacity="0.35"/>
  <ellipse cx="548" cy="554" rx="15" ry="6" fill="#5A8A9A" opacity="0.20"/>

  <ellipse cx="280" cy="730" rx="70" ry="32" fill="url(#waterPuddle1)" opacity="0.8"/>
  <ellipse cx="278" cy="728" rx="58" ry="26" fill="none" stroke="#4A6A7A" stroke-width="0.7" opacity="0.3"/>

  <!-- ===================== CELL BARS (West side) ===================== -->
  <!-- Cell divider wall -->
  <rect x="132" y="420" width="240" height="8" fill="#2A2724"/>
  <rect x="132" y="290" width="240" height="8" fill="url(#ironBar)"/>
  <!-- Cell bars - upper cell -->
  <rect x="162" y="132" width="8" height="298" fill="url(#ironBar)" filter="url(#shadow)"/>
  <rect x="192" y="132" width="8" height="298" fill="url(#ironBar)" filter="url(#shadow)"/>
  <rect x="222" y="132" width="8" height="298" fill="url(#ironBar)" filter="url(#shadow)"/>
  <rect x="252" y="132" width="8" height="298" fill="url(#ironBar)" filter="url(#shadow)"/>
  <rect x="282" y="132" width="8" height="298" fill="url(#ironBar)" filter="url(#shadow)"/>
  <rect x="312" y="132" width="8" height="298" fill="url(#ironBar)" filter="url(#shadow)"/>
  <rect x="342" y="132" width="8" height="298" fill="url(#ironBar)" filter="url(#shadow)"/>
  <!-- Cell bars - lower cell -->
  <rect x="162" y="428" width="8" height="440" fill="url(#ironBar)" filter="url(#shadow)"/>
  <rect x="192" y="428" width="8" height="440" fill="url(#ironBar)" filter="url(#shadow)"/>
  <rect x="222" y="428" width="8" height="440" fill="url(#ironBar)" filter="url(#shadow)"/>
  <rect x="252" y="428" width="8" height="440" fill="url(#ironBar)" filter="url(#shadow)"/>
  <rect x="282" y="428" width="8" height="440" fill="url(#ironBar)" filter="url(#shadow)"/>
  <rect x="312" y="428" width="8" height="440" fill="url(#ironBar)" filter="url(#shadow)"/>
  <rect x="342" y="428" width="8" height="440" fill="url(#ironBar)" filter="url(#shadow)"/>
  <!-- Lock mechanism -->
  <rect x="345" y="265" width="22" height="30" rx="3" fill="#3A3530" filter="url(#shadow)"/>
  <rect x="350" y="272" width="12" height="16" rx="2" fill="#252320"/>
  <circle cx="356" cy="280" r="4" fill="#4A4540"/>
  <circle cx="356" cy="280" r="2" fill="#2A2520"/>
  <!-- Rust stains below bars -->
  <rect x="140" y="420" width="210" height="40" fill="#5A3015" opacity="0.25" filter="url(#rustFilter)"/>
  <rect x="140" y="860" width="210" height="40" fill="#5A3015" opacity="0.20" filter="url(#rustFilter)"/>

  <!-- ===================== BONES ===================== -->
  <!-- Bone cluster NW cell -->
  <ellipse cx="200" cy="200" rx="12" ry="5" fill="#D0C8A8" transform="rotate(25 200 200)"/>
  <ellipse cx="205" cy="212" rx="10" ry="4" fill="#C8C0A0" transform="rotate(-15 205 212)"/>
  <circle cx="195" cy="198" r="6" fill="#C8C0A0"/>
  <circle cx="196" cy="197" r="3" fill="#D8D0B0" opacity="0.7"/>
  <line x1="188" y1="205" x2="175" y2="215" stroke="#C8C0A0" stroke-width="2.5" stroke-linecap="round"/>
  <line x1="190" y1="208" x2="177" y2="220" stroke="#C0B898" stroke-width="2" stroke-linecap="round"/>
  <line x1="192" y1="210" x2="180" y2="222" stroke="#C8C0A0" stroke-width="2.5" stroke-linecap="round"/>
  <path d="M215,230 Q240,220 245,238 Q240,246 215,240 Z" fill="none" stroke="#C0B898" stroke-width="2.5" opacity="0.8"/>
  <!-- Bone cluster SW -->
  <ellipse cx="200" cy="780" rx="14" ry="5" fill="#C8C0A0" transform="rotate(-20 200 780)"/>
  <circle cx="215" cy="772" r="7" fill="#C8C0A0"/>
  <circle cx="216" cy="771" r="3.5" fill="#D8D0B0" opacity="0.7"/>
  <line x1="205" y1="785" x2="190" y2="798" stroke="#C8C0A0" stroke-width="2.5" stroke-linecap="round"/>
  <line x1="208" y1="788" x2="194" y2="802" stroke="#C0B898" stroke-width="2" stroke-linecap="round"/>
  <!-- Scattered bones center -->
  <ellipse cx="780" cy="350" rx="18" ry="6" fill="#C8C0A0" transform="rotate(40 780 350)"/>
  <ellipse cx="795" cy="365" rx="14" ry="5" fill="#BEB8A0" transform="rotate(-30 795 365)"/>
  <circle cx="770" cy="345" r="7" fill="#C8C0A0"/>
  <circle cx="771" cy="344" r="3.5" fill="#D8D0B0" opacity="0.7"/>

  <!-- ===================== COBWEBS ===================== -->
  <!-- NW corner -->
  <path d="M132,132 L190,132" fill="none" stroke="#A0A095" stroke-width="0.8" opacity="0.5"/>
  <path d="M132,132 L132,190" fill="none" stroke="#A0A095" stroke-width="0.8" opacity="0.5"/>
  <path d="M132,132 L182,182" fill="none" stroke="#A0A095" stroke-width="0.8" opacity="0.5"/>
  <path d="M148,132 Q162,150 148,168" fill="none" stroke="#A0A095" stroke-width="0.5" opacity="0.4"/>
  <path d="M162,132 Q172,157 158,178" fill="none" stroke="#A0A095" stroke-width="0.5" opacity="0.4"/>
  <path d="M132,150 Q155,158 168,150" fill="none" stroke="#A0A095" stroke-width="0.5" opacity="0.4"/>
  <path d="M132,165 Q158,168 170,162" fill="none" stroke="#A0A095" stroke-width="0.5" opacity="0.4"/>
  <circle cx="162" cy="150" r="1.5" fill="#A0A095" opacity="0.6"/>
  <!-- SE corner -->
  <path d="M1268,868 L1210,868" fill="none" stroke="#A0A095" stroke-width="0.8" opacity="0.5"/>
  <path d="M1268,868 L1268,810" fill="none" stroke="#A0A095" stroke-width="0.8" opacity="0.5"/>
  <path d="M1268,868 L1218,818" fill="none" stroke="#A0A095" stroke-width="0.8" opacity="0.5"/>
  <path d="M1252,868 Q1238,852 1252,835" fill="none" stroke="#A0A095" stroke-width="0.5" opacity="0.4"/>
  <path d="M1238,868 Q1228,844 1242,824" fill="none" stroke="#A0A095" stroke-width="0.5" opacity="0.4"/>
  <path d="M1268,852 Q1246,846 1232,852" fill="none" stroke="#A0A095" stroke-width="0.5" opacity="0.4"/>
  <circle cx="1242" cy="850" r="1.5" fill="#A0A095" opacity="0.6"/>

  <!-- ===================== HEAVY DOOR (South) ===================== -->
  <rect x="570" y="868" width="260" height="30" fill="#2A2724"/>
  <rect x="572" y="868" width="256" height="28" fill="#302D2A"/>
  <rect x="580" y="868" width="240" height="28" fill="url(#doorGrad)"/>
  <line x1="620" y1="868" x2="620" y2="896" stroke="#2A1808" stroke-width="2" opacity="0.7"/>
  <line x1="660" y1="868" x2="660" y2="896" stroke="#2A1808" stroke-width="2" opacity="0.7"/>
  <line x1="700" y1="868" x2="700" y2="896" stroke="#2A1808" stroke-width="2" opacity="0.7"/>
  <line x1="740" y1="868" x2="740" y2="896" stroke="#2A1808" stroke-width="2" opacity="0.7"/>
  <line x1="780" y1="868" x2="780" y2="896" stroke="#2A1808" stroke-width="2" opacity="0.7"/>
  <rect x="580" y="876" width="240" height="8" fill="#3A2810" opacity="0.7"/>
  <rect x="580" y="868" width="240" height="5" fill="#2A2520" opacity="0.8"/>
  <rect x="580" y="891" width="240" height="5" fill="#2A2520" opacity="0.8"/>
  <circle cx="590" cy="872" r="4" fill="#3A3530"/>
  <circle cx="590" cy="892" r="4" fill="#3A3530"/>
  <circle cx="810" cy="872" r="4" fill="#3A3530"/>
  <circle cx="810" cy="892" r="4" fill="#3A3530"/>
  <circle cx="700" cy="882" r="12" fill="none" stroke="#5A5040" stroke-width="4"/>
  <circle cx="700" cy="882" r="6" fill="#3A3530"/>
  <rect x="580" y="893" width="240" height="12" fill="#0A0806" opacity="0.6"/>

  <!-- ===================== CHAINS ===================== -->
  <ellipse cx="1268" cy="340" rx="8" ry="8" fill="#3A3530" stroke="#252320" stroke-width="2"/>
  <ellipse cx="1250" cy="344" rx="8" ry="5" fill="none" stroke="#3A3530" stroke-width="3" transform="rotate(20 1250 344)"/>
  <ellipse cx="1232" cy="352" rx="8" ry="5" fill="none" stroke="#3A3530" stroke-width="3" transform="rotate(-15 1232 352)"/>
  <ellipse cx="1215" cy="362" rx="8" ry="5" fill="none" stroke="#3A3530" stroke-width="3" transform="rotate(25 1215 362)"/>
  <ellipse cx="1200" cy="374" rx="8" ry="5" fill="none" stroke="#3A3530" stroke-width="3" transform="rotate(-10 1200 374)"/>
  <ellipse cx="1190" cy="388" rx="8" ry="5" fill="none" stroke="#3A3530" stroke-width="3" transform="rotate(15 1190 388)"/>
  <circle cx="1185" cy="402" r="10" fill="none" stroke="#3A3530" stroke-width="5"/>

  <!-- ===================== RUBBLE ===================== -->
  <ellipse cx="1100" cy="155" rx="40" ry="18" fill="#2A2724" filter="url(#shadow)"/>
  <polygon points="1075,158 1090,140 1105,155 1120,142 1135,158 1125,168 1085,165" fill="#353230"/>
  <polygon points="1082,158 1095,143 1108,158 1118,145 1128,160 1120,168 1090,166" fill="#302D2A"/>
  <polygon points="1088,162 1098,150 1110,162" fill="#3A3733"/>
  <circle cx="1095" cy="158" r="5" fill="#2A2724"/>
  <circle cx="1115" cy="152" r="4" fill="#2E2B27"/>

  <ellipse cx="220" cy="850" rx="35" ry="15" fill="#2A2724" filter="url(#shadow)"/>
  <polygon points="195,852 210,836 225,850 240,838 255,852 248,862 205,860" fill="#353230"/>
  <polygon points="202,852 215,840 228,852 238,842 248,854" fill="#302D2A"/>

  <!-- ===================== DARKNESS OVERLAY ===================== -->
  <rect x="0" y="0" width="1400" height="1000" fill="url(#darkness)" opacity="0.9"/>

  <!-- Dark corner patches -->
  <ellipse cx="132" cy="868" rx="180" ry="140" fill="#030201" opacity="0.7"/>
  <ellipse cx="1268" cy="132" rx="160" ry="120" fill="#030201" opacity="0.6"/>
  <ellipse cx="1268" cy="868" rx="180" ry="140" fill="#030201" opacity="0.75"/>

  <!-- ===================== GRID OVERLAY ===================== -->
  <rect x="0" y="0" width="1400" height="1000" fill="url(#grid)"/>
</svg>
