<svg xmlns="http://www.w3.org/2000/svg" viewBox="0 0 1400 1000" width="1400" height="1000">
  <defs>
    <!-- Organic grass texture -->
    <filter id="grassFilter" x="0%" y="0%" width="100%" height="100%">
      <feTurbulence type="fractalNoise" baseFrequency="0.04 0.06" numOctaves="6" seed="31" result="noise"/>
      <feColorMatrix type="matrix"
        values="0    0.3  0 0 0.02
                0    0.4  0 0 0.08
                0    0.1  0 0 0.01
                0    0    0 1 0" in="noise" result="grassColor"/>
      <feComposite in="grassColor" in2="SourceGraphic" operator="multiply" result="tex"/>
      <feTurbulence type="turbulence" baseFrequency="0.003" numOctaves="2" seed="5" result="warp"/>
      <feDisplacementMap in="tex" in2="warp" scale="5" xChannelSelector="R" yChannelSelector="G"/>
    </filter>

    <!-- Dirt path texture -->
    <filter id="dirtFilter" x="0%" y="0%" width="100%" height="100%">
      <feTurbulence type="fractalNoise" baseFrequency="0.05 0.03" numOctaves="4" seed="18" result="noise"/>
      <feColorMatrix type="matrix"
        values="0.35 0.1 0 0 0.18
                0.25 0.1 0 0 0.12
                0.1  0   0 0 0.04
                0    0   0 1 0" in="noise" result="dirtColor"/>
      <feComposite in="dirtColor" in2="SourceGraphic" operator="multiply"/>
    </filter>

    <!-- Tree canopy shadow filter -->
    <filter id="treeFilter" x="-15%" y="-15%" width="130%" height="130%">
      <feGaussianBlur stdDeviation="4" result="blur"/>
      <feMerge>
        <feMergeNode in="blur"/>
        <feMergeNode in="SourceGraphic"/>
      </feMerge>
    </filter>

    <!-- Dappled light filter -->
    <filter id="dappledLight" x="0%" y="0%" width="100%" height="100%">
      <feTurbulence type="fractalNoise" baseFrequency="0.025 0.03" numOctaves="4" seed="77" result="noise"/>
      <feColorMatrix type="matrix"
        values="0.8 0 0 0 0.15
                0.7 0 0 0 0.18
                0.3 0 0 0 0.02
                0   0 0 0.4 0" in="noise" result="light"/>
      <feBlend in="SourceGraphic" in2="light" mode="screen"/>
    </filter>

    <!-- Soft drop shadow -->
    <filter id="treeShadow" x="-20%" y="-10%" width="140%" height="130%">
      <feDropShadow dx="8" dy="12" stdDeviation="8" flood-color="#1A2808" flood-opacity="0.55"/>
    </filter>
    <filter id="propShadow" x="-20%" y="-20%" width="140%" height="140%">
      <feDropShadow dx="3" dy="5" stdDeviation="4" flood-color="#0A1805" flood-opacity="0.5"/>
    </filter>

    <!-- Stream shimmer filter -->
    <filter id="waterFilter" x="0%" y="0%" width="100%" height="100%">
      <feTurbulence type="fractalNoise" baseFrequency="0.08 0.02" numOctaves="3" seed="44" result="noise"/>
      <feColorMatrix type="matrix"
        values="0    0.2  0.5 0 0.05
                0    0.4  0.5 0 0.15
                0.2  0.4  0.5 0 0.25
                0    0    0   0.7 0.1" in="noise" result="water"/>
      <feBlend in="SourceGraphic" in2="water" mode="screen"/>
    </filter>

    <!-- Varied grass pattern for clearing -->
    <pattern id="grassClearing" x="0" y="0" width="120" height="120" patternUnits="userSpaceOnUse">
      <rect width="120" height="120" fill="#4A8028"/>
      <!-- Darker and lighter grass patches -->
      <ellipse cx="20" cy="20" rx="18" ry="15" fill="#558A2E" opacity="0.7"/>
      <ellipse cx="80" cy="15" rx="22" ry="18" fill="#426A20" opacity="0.6"/>
      <ellipse cx="55" cy="65" rx="25" ry="20" fill="#5A9030" opacity="0.7"/>
      <ellipse cx="100" cy="80" rx="18" ry="22" fill="#3E6A1C" opacity="0.6"/>
      <ellipse cx="15" cy="90" rx="20" ry="16" fill="#608A35" opacity="0.5"/>
      <!-- Grass blade hints -->
      <line x1="30" y1="40" x2="28" y2="30" stroke="#6AAA38" stroke-width="0.8" opacity="0.5"/>
      <line x1="50" y1="30" x2="52" y2="20" stroke="#4A8828" stroke-width="0.8" opacity="0.5"/>
      <line x1="70" y1="55" x2="68" y2="45" stroke="#60A030" stroke-width="0.8" opacity="0.5"/>
      <line x1="90" y1="40" x2="92" y2="30" stroke="#6AAA38" stroke-width="0.8" opacity="0.4"/>
      <line x1="105" y1="60" x2="103" y2="50" stroke="#4A8828" stroke-width="0.8" opacity="0.5"/>
      <line x1="25" y1="75" x2="27" y2="65" stroke="#60A030" stroke-width="0.8" opacity="0.4"/>
      <line x1="65" y1="95" x2="63" y2="85" stroke="#6AAA38" stroke-width="0.8" opacity="0.5"/>
      <line x1="110" y1="100" x2="112" y2="90" stroke="#4A8828" stroke-width="0.8" opacity="0.4"/>
    </pattern>

    <!-- Dense forest edge background -->
    <pattern id="forestEdge" x="0" y="0" width="80" height="80" patternUnits="userSpaceOnUse">
      <rect width="80" height="80" fill="#1A3010"/>
      <ellipse cx="20" cy="20" rx="18" ry="16" fill="#243818" opacity="0.8"/>
      <ellipse cx="55" cy="30" rx="20" ry="18" fill="#1E3012" opacity="0.8"/>
      <ellipse cx="35" cy="60" rx="22" ry="19" fill="#283E1A" opacity="0.7"/>
      <ellipse cx="68" cy="65" rx="16" ry="18" fill="#1A2E0E" opacity="0.8"/>
    </pattern>

    <!-- Dirt path pattern -->
    <pattern id="dirtPath" x="0" y="0" width="90" height="90" patternUnits="userSpaceOnUse">
      <rect width="90" height="90" fill="#8B6835"/>
      <ellipse cx="25" cy="25" rx="15" ry="12" fill="#9A7840" opacity="0.6"/>
      <ellipse cx="65" cy="55" rx="18" ry="14" fill="#7A5828" opacity="0.5"/>
      <ellipse cx="45" cy="75" rx="12" ry="10" fill="#9A7840" opacity="0.5"/>
      <!-- Rut lines -->
      <line x1="10" y1="0" x2="8" y2="90" stroke="#6A4820" stroke-width="1.5" opacity="0.4"/>
      <line x1="70" y1="0" x2="72" y2="90" stroke="#6A4820" stroke-width="1.5" opacity="0.4"/>
      <!-- Pebbles -->
      <circle cx="35" cy="40" r="2" fill="#6A5830" opacity="0.6"/>
      <circle cx="58" cy="20" r="1.5" fill="#7A6840" opacity="0.5"/>
      <circle cx="15" cy="70" r="2" fill="#6A5830" opacity="0.6"/>
    </pattern>

    <!-- Stream water gradient -->
    <linearGradient id="streamGrad" x1="0%" y1="0%" x2="100%" y2="100%">
      <stop offset="0%" stop-color="#3A7A9A"/>
      <stop offset="30%" stop-color="#5AA0C0"/>
      <stop offset="60%" stop-color="#4A8AAA"/>
      <stop offset="100%" stop-color="#2A6080"/>
    </linearGradient>
    <linearGradient id="streamShimmer" x1="0%" y1="0%" x2="0%" y2="100%">
      <stop offset="0%" stop-color="#8ACAE0" stop-opacity="0.5"/>
      <stop offset="40%" stop-color="#5AABCC" stop-opacity="0.3"/>
      <stop offset="100%" stop-color="#3A8AAA" stop-opacity="0.1"/>
    </linearGradient>

    <!-- Dappled light patches -->
    <radialGradient id="sunPatch1" cx="50%" cy="50%" r="50%">
      <stop offset="0%" stop-color="#E8D870" stop-opacity="0.22"/>
      <stop offset="50%" stop-color="#D0C050" stop-opacity="0.10"/>
      <stop offset="100%" stop-color="#B0A030" stop-opacity="0"/>
    </radialGradient>
    <radialGradient id="sunPatch2" cx="50%" cy="50%" r="50%">
      <stop offset="0%" stop-color="#F0E880" stop-opacity="0.18"/>
      <stop offset="60%" stop-color="#D8D060" stop-opacity="0.08"/>
      <stop offset="100%" stop-color="#C0B840" stop-opacity="0"/>
    </radialGradient>

    <!-- Tree trunk gradient -->
    <linearGradient id="trunkGrad" x1="0%" y1="0%" x2="100%" y2="0%">
      <stop offset="0%" stop-color="#2A1A08"/>
      <stop offset="35%" stop-color="#5A3818"/>
      <stop offset="70%" stop-color="#4A2E12"/>
      <stop offset="100%" stop-color="#1E1208"/>
    </linearGradient>

    <!-- Ambient forest vignette -->
    <radialGradient id="forestVignette" cx="50%" cy="50%" r="55%">
      <stop offset="0%" stop-color="#0A1805" stop-opacity="0"/>
      <stop offset="60%" stop-color="#0A1805" stop-opacity="0.15"/>
      <stop offset="100%" stop-color="#030A02" stop-opacity="0.65"/>
    </radialGradient>

    <!-- Grid -->
    <pattern id="grid" x="0" y="0" width="70" height="70" patternUnits="userSpaceOnUse">
      <path d="M 70 0 L 0 0 0 70" fill="none" stroke="rgba(0,0,0,0.18)" stroke-width="1"/>
    </pattern>
  </defs>

  <!-- ===================== FOREST BACKGROUND ===================== -->
  <rect x="0" y="0" width="1400" height="1000" fill="url(#forestEdge)"/>

  <!-- ===================== CLEARING GRASS ===================== -->
  <!-- Main clearing shape — irregular organic oval -->
  <ellipse cx="660" cy="500" rx="520" ry="380" fill="url(#grassClearing)" filter="url(#grassFilter)"/>

  <!-- Varied grass shade patches for organic look -->
  <ellipse cx="580" cy="420" rx="180" ry="130" fill="#5A9030" opacity="0.25" filter="url(#grassFilter)"/>
  <ellipse cx="760" cy="580" rx="200" ry="150" fill="#3E6A1C" opacity="0.20" filter="url(#grassFilter)"/>
  <ellipse cx="500" cy="580" rx="150" ry="110" fill="#60A035" opacity="0.22" filter="url(#grassFilter)"/>
  <ellipse cx="800" cy="420" rx="130" ry="100" fill="#4A8828" opacity="0.20" filter="url(#grassFilter)"/>
  <ellipse cx="650" cy="300" rx="120" ry="80" fill="#62AA38" opacity="0.18"/>
  <ellipse cx="640" cy="700" rx="160" ry="100" fill="#3A6018" opacity="0.22"/>

  <!-- ===================== DAPPLED LIGHT ===================== -->
  <ellipse cx="620" cy="350" rx="110" ry="80" fill="url(#sunPatch1)" filter="url(#dappledLight)"/>
  <ellipse cx="780" cy="500" rx="90" ry="70" fill="url(#sunPatch2)" filter="url(#dappledLight)"/>
  <ellipse cx="530" cy="620" rx="75" ry="55" fill="url(#sunPatch1)" filter="url(#dappledLight)"/>
  <ellipse cx="720" cy="680" rx="80" ry="60" fill="url(#sunPatch2)" filter="url(#dappledLight)"/>
  <ellipse cx="500" cy="440" rx="55" ry="45" fill="url(#sunPatch1)" opacity="0.7" filter="url(#dappledLight)"/>

  <!-- ===================== DIRT PATH (winding, irregular) ===================== -->
  <!-- Path shadow first -->
  <path d="M340,868 Q360,750 380,680 Q420,580 460,540 Q500,500 550,490 Q620,480 680,490 Q750,500 800,520 Q860,545 900,560 Q950,575 980,560 Q1010,540 1020,500 Q1030,450 1020,400 Q1010,350 1000,310 Q990,275 1005,240 Q1015,215 1040,195" stroke="#6A4A1A" stroke-width="68" fill="none" stroke-linecap="round" stroke-linejoin="round" opacity="0.25"/>
  <!-- Path main -->
  <path d="M340,868 Q360,750 380,680 Q420,580 460,540 Q500,500 550,490 Q620,480 680,490 Q750,500 800,520 Q860,545 900,560 Q950,575 980,560 Q1010,540 1020,500 Q1030,450 1020,400 Q1010,350 1000,310 Q990,275 1005,240 Q1015,215 1040,195" stroke="url(#dirtPath)" stroke-width="62" fill="none" stroke-linecap="round" stroke-linejoin="round" filter="url(#dirtFilter)"/>
  <!-- Path edges (darker, irregular) -->
  <path d="M340,868 Q360,750 380,680 Q420,580 460,540 Q500,500 550,490 Q620,480 680,490 Q750,500 800,520 Q860,545 900,560 Q950,575 980,560 Q1010,540 1020,500 Q1030,450 1020,400 Q1010,350 1000,310 Q990,275 1005,240 Q1015,215 1040,195" stroke="#6A4818" stroke-width="64" fill="none" stroke-linecap="round" stroke-linejoin="round" opacity="0.15"/>
  <!-- Rut lines on path -->
  <path d="M345,860 Q365,744 384,673 Q422,574 462,534 Q502,494 552,485 Q622,476 682,487" stroke="#5A3810" stroke-width="1.5" fill="none" stroke-dasharray="8,12" opacity="0.35"/>
  <path d="M352,870 Q372,755 392,688 Q430,588 470,547 Q510,507 560,496 Q628,486 690,496" stroke="#5A3810" stroke-width="1.5" fill="none" stroke-dasharray="6,14" opacity="0.3"/>

  <!-- ===================== STREAM (right side) ===================== -->
  <!-- Stream bed shadow -->
  <path d="M1100,132 Q1080,200 1065,280 Q1048,370 1060,450 Q1072,530 1055,610 Q1038,690 1045,770 Q1052,850 1060,868" stroke="#2A4A5A" stroke-width="72" fill="none" stroke-linecap="round" stroke-linejoin="round" opacity="0.4"/>
  <!-- Stream water -->
  <path d="M1100,132 Q1080,200 1065,280 Q1048,370 1060,450 Q1072,530 1055,610 Q1038,690 1045,770 Q1052,850 1060,868" stroke="url(#streamGrad)" stroke-width="62" fill="none" stroke-linecap="round" stroke-linejoin="round" filter="url(#waterFilter)"/>
  <!-- Stream shimmer layer -->
  <path d="M1100,132 Q1080,200 1065,280 Q1048,370 1060,450 Q1072,530 1055,610 Q1038,690 1045,770 Q1052,850 1060,868" stroke="url(#streamShimmer)" stroke-width="50" fill="none" stroke-linecap="round" stroke-linejoin="round"/>
  <!-- Stream edge foam/rocks -->
  <path d="M1100,132 Q1080,200 1065,280 Q1048,370 1060,450 Q1072,530 1055,610 Q1038,690 1045,770 Q1052,850 1060,868" stroke="#7AC0D8" stroke-width="3" fill="none" stroke-linecap="round" stroke-dasharray="15,20" opacity="0.4"/>
  <!-- Stream rocks -->
  <ellipse cx="1068" cy="310" rx="10" ry="7" fill="#5A5A50" filter="url(#propShadow)"/>
  <ellipse cx="1062" cy="312" rx="8" ry="5" fill="#6A6A60"/>
  <ellipse cx="1058" cy="480" rx="9" ry="6" fill="#585850" filter="url(#propShadow)"/>
  <ellipse cx="1055" cy="482" rx="7" ry="4.5" fill="#686860"/>
  <ellipse cx="1072" cy="650" rx="11" ry="7" fill="#5A5A50" filter="url(#propShadow)"/>
  <ellipse cx="1069" cy="652" rx="8" ry="5.5" fill="#6A6A60"/>
  <!-- Stream banks (darker grass edge) -->
  <path d="M1100,132 Q1080,200 1065,280 Q1048,370 1060,450 Q1072,530 1055,610 Q1038,690 1045,770 Q1052,850 1060,868" stroke="#2A4A20" stroke-width="75" fill="none" stroke-linecap="round" opacity="0.3"/>

  <!-- ===================== DENSE TREE CANOPY EDGE ===================== -->
  <!-- Far background tree mass (darkest) -->
  <!-- North edge -->
  <ellipse cx="100" cy="80" rx="160" ry="120" fill="#0E2008" filter="url(#treeFilter)"/>
  <ellipse cx="300" cy="60" rx="180" ry="130" fill="#0E2208" filter="url(#treeFilter)"/>
  <ellipse cx="500" cy="50" rx="160" ry="110" fill="#102208" filter="url(#treeFilter)"/>
  <ellipse cx="700" cy="40" rx="200" ry="120" fill="#0C1E06" filter="url(#treeFilter)"/>
  <ellipse cx="900" cy="55" rx="180" ry="115" fill="#102408" filter="url(#treeFilter)"/>
  <ellipse cx="1100" cy="45" rx="160" ry="125" fill="#0C2008" filter="url(#treeFilter)"/>
  <ellipse cx="1300" cy="70" rx="170" ry="115" fill="#0E2208" filter="url(#treeFilter)"/>
  <!-- South edge -->
  <ellipse cx="100" cy="920" rx="150" ry="130" fill="#0E2008" filter="url(#treeFilter)"/>
  <ellipse cx="300" cy="940" rx="170" ry="120" fill="#102208" filter="url(#treeFilter)"/>
  <ellipse cx="500" cy="950" rx="155" ry="115" fill="#0C2008" filter="url(#treeFilter)"/>
  <ellipse cx="700" cy="960" rx="190" ry="110" fill="#102408" filter="url(#treeFilter)"/>
  <ellipse cx="900" cy="945" rx="170" ry="120" fill="#0E2008" filter="url(#treeFilter)"/>
  <ellipse cx="1100" cy="935" rx="150" ry="125" fill="#0C2008" filter="url(#treeFilter)"/>
  <ellipse cx="1300" cy="920" rx="160" ry="130" fill="#102208" filter="url(#treeFilter)"/>
  <!-- West edge -->
  <ellipse cx="60" cy="200" rx="120" ry="180" fill="#0E2008" filter="url(#treeFilter)"/>
  <ellipse cx="50" cy="420" rx="130" ry="200" fill="#102208" filter="url(#treeFilter)"/>
  <ellipse cx="55" cy="650" rx="120" ry="180" fill="#0E2008" filter="url(#treeFilter)"/>
  <ellipse cx="60" cy="840" rx="110" ry="150" fill="#0C2008" filter="url(#treeFilter)"/>

  <!-- Mid-layer trees (lighter) -->
  <!-- North -->
  <ellipse cx="120" cy="130" rx="120" ry="90" fill="#162C0C"/>
  <ellipse cx="270" cy="110" rx="140" ry="100" fill="#182E0E"/>
  <ellipse cx="430" cy="100" rx="130" ry="88" fill="#142A0A"/>
  <ellipse cx="590" cy="90" rx="150" ry="95" fill="#1A3010"/>
  <ellipse cx="760" cy="82" rx="140" ry="92" fill="#182E0C"/>
  <ellipse cx="920" cy="95" rx="135" ry="90" fill="#1A3010"/>
  <ellipse cx="1080" cy="88" rx="125" ry="95" fill="#162A0C"/>
  <ellipse cx="1240" cy="110" rx="140" ry="88" fill="#1A3010"/>
  <ellipse cx="1370" cy="130" rx="110" ry="92" fill="#182E0E"/>
  <!-- South -->
  <ellipse cx="130" cy="870" rx="115" ry="95" fill="#162C0C"/>
  <ellipse cx="280" cy="890" rx="135" ry="98" fill="#182E0E"/>
  <ellipse cx="440" cy="900" rx="125" ry="92" fill="#142A0A"/>
  <ellipse cx="600" cy="908" rx="145" ry="88" fill="#1A3010"/>
  <ellipse cx="760" cy="912" rx="140" ry="90" fill="#182E0C"/>
  <ellipse cx="920" cy="905" rx="130" ry="88" fill="#1A3010"/>
  <ellipse cx="1075" cy="895" rx="120" ry="95" fill="#162A0C"/>
  <ellipse cx="1220" cy="878" rx="135" ry="92" fill="#1A3010"/>
  <ellipse cx="1360" cy="862" rx="115" ry="90" fill="#182E0E"/>
  <!-- West -->
  <ellipse cx="90" cy="250" rx="95" ry="140" fill="#162C0C"/>
  <ellipse cx="78" cy="440" rx="100" ry="155" fill="#182E0E"/>
  <ellipse cx="85" cy="640" rx="95" ry="140" fill="#162C0C"/>
  <ellipse cx="90" cy="820" rx="90" ry="120" fill="#142A0A"/>
  <!-- East (below stream) -->
  <ellipse cx="1310" cy="250" rx="95" ry="140" fill="#162C0C"/>
  <ellipse cx="1320" cy="440" rx="100" ry="155" fill="#182E0E"/>
  <ellipse cx="1315" cy="640" rx="95" ry="140" fill="#162C0C"/>
  <ellipse cx="1310" cy="820" rx="90" ry="120" fill="#142A0A"/>

  <!-- Individual foreground trees with depth (trunks + canopy) -->
  <!-- Tree NW -->
  <rect x="130" y="138" width="28" height="50" rx="6" fill="url(#trunkGrad)"/>
  <ellipse cx="144" cy="148" rx="65" ry="55" fill="#2A5018" filter="url(#treeShadow)"/>
  <ellipse cx="144" cy="140" rx="65" ry="55" fill="#3A6A22"/>
  <ellipse cx="130" cy="130" rx="50" ry="45" fill="#4A7A28"/>
  <ellipse cx="158" cy="128" rx="48" ry="44" fill="#3E7020"/>
  <ellipse cx="144" cy="118" rx="40" ry="38" fill="#508030"/>
  <!-- Highlight -->
  <ellipse cx="134" cy="122" rx="20" ry="16" fill="#60A038" opacity="0.4"/>

  <!-- Tree NE -->
  <rect x="1240" y="145" width="26" height="45" rx="5" fill="url(#trunkGrad)"/>
  <ellipse cx="1253" cy="152" rx="60" ry="52" fill="#2A5018" filter="url(#treeShadow)"/>
  <ellipse cx="1253" cy="144" rx="60" ry="52" fill="#386420"/>
  <ellipse cx="1240" cy="135" rx="48" ry="42" fill="#4A7828"/>
  <ellipse cx="1265" cy="132" rx="46" ry="40" fill="#3C6E1C"/>
  <ellipse cx="1253" cy="122" rx="38" ry="35" fill="#4E7E2E"/>
  <ellipse cx="1244" cy="126" rx="18" ry="15" fill="#5EA036" opacity="0.4"/>

  <!-- Tree SW -->
  <rect x="125" y="798" width="28" height="52" rx="6" fill="url(#trunkGrad)"/>
  <ellipse cx="139" cy="808" rx="62" ry="54" fill="#2A5018" filter="url(#treeShadow)"/>
  <ellipse cx="139" cy="800" rx="62" ry="54" fill="#3A6A22"/>
  <ellipse cx="125" cy="790" rx="50" ry="44" fill="#4A7828"/>
  <ellipse cx="153" cy="788" rx="48" ry="42" fill="#3E7020"/>
  <ellipse cx="139" cy="778" rx="40" ry="37" fill="#508030"/>
  <ellipse cx="130" cy="782" rx="19" ry="15" fill="#60A038" opacity="0.4"/>

  <!-- Tree SE (partial, on stream bank) -->
  <rect x="1160" y="810" width="24" height="48" rx="5" fill="url(#trunkGrad)"/>
  <ellipse cx="1172" cy="820" rx="58" ry="50" fill="#2A5018" filter="url(#treeShadow)"/>
  <ellipse cx="1172" cy="812" rx="58" ry="50" fill="#366018"/>
  <ellipse cx="1160" cy="802" rx="46" ry="42" fill="#4A7828"/>
  <ellipse cx="1184" cy="800" rx="44" ry="40" fill="#3A6818"/>
  <ellipse cx="1172" cy="792" rx="36" ry="34" fill="#4C7A28"/>
  <ellipse cx="1163" cy="796" rx="17" ry="14" fill="#5E9E34" opacity="0.4"/>

  <!-- Cluster trees North-center -->
  <rect x="620" y="112" width="20" height="38" rx="4" fill="url(#trunkGrad)"/>
  <ellipse cx="630" cy="120" rx="55" ry="48" fill="#2A5018" filter="url(#treeShadow)"/>
  <ellipse cx="630" cy="112" rx="55" ry="48" fill="#3A6A22"/>
  <ellipse cx="618" cy="104" rx="44" ry="40" fill="#488028"/>
  <ellipse cx="642" cy="102" rx="42" ry="38" fill="#3C7020"/>
  <ellipse cx="630" cy="94" rx="36" ry="32" fill="#508030"/>

  <!-- Cluster trees South-center -->
  <rect x="750" y="862" width="20" height="38" rx="4" fill="url(#trunkGrad)"/>
  <ellipse cx="760" cy="870" rx="52" ry="46" fill="#2A5018" filter="url(#treeShadow)"/>
  <ellipse cx="760" cy="862" rx="52" ry="46" fill="#3A6822"/>
  <ellipse cx="748" cy="854" rx="42" ry="38" fill="#488028"/>
  <ellipse cx="772" cy="852" rx="40" ry="36" fill="#3C7020"/>
  <ellipse cx="760" cy="844" rx="34" ry="30" fill="#508030"/>

  <!-- ===================== WILDFLOWERS ===================== -->
  <!-- Flower cluster 1 -->
  <circle cx="465" cy="365" r="4" fill="#E8B8E0"/>
  <circle cx="472" cy="358" r="3.5" fill="#F0C8E8"/>
  <circle cx="475" cy="370" r="3" fill="#D8A8D0"/>
  <circle cx="460" cy="374" r="3.5" fill="#E0B8D8"/>
  <!-- Stems -->
  <line x1="465" y1="369" x2="464" y2="380" stroke="#4A8828" stroke-width="1" opacity="0.7"/>
  <line x1="472" y1="362" x2="471" y2="373" stroke="#4A8828" stroke-width="1" opacity="0.7"/>

  <!-- Flower cluster 2 -->
  <circle cx="820" cy="420" r="4" fill="#F8E060"/>
  <circle cx="828" cy="413" r="3.5" fill="#F0D850"/>
  <circle cx="832" cy="425" r="3" fill="#F8E870"/>
  <circle cx="815" cy="428" r="3.5" fill="#E8D848"/>
  <line x1="820" y1="424" x2="819" y2="436" stroke="#4A8828" stroke-width="1" opacity="0.7"/>
  <line x1="828" y1="417" x2="827" y2="429" stroke="#4A8828" stroke-width="1" opacity="0.7"/>

  <!-- Flower cluster 3 -->
  <circle cx="570" cy="700" r="3.5" fill="#F0A0A0"/>
  <circle cx="578" cy="694" r="3" fill="#F8B0B0"/>
  <circle cx="582" cy="705" r="3.5" fill="#E89090"/>
  <circle cx="564" cy="708" r="3" fill="#F0A8A8"/>
  <line x1="570" y1="704" x2="569" y2="715" stroke="#4A8828" stroke-width="1" opacity="0.7"/>

  <!-- Flower cluster 4 (near stream) -->
  <circle cx="990" cy="520" r="4" fill="#B8E8F8"/>
  <circle cx="998" cy="513" r="3.5" fill="#C8F0F8"/>
  <circle cx="1002" cy="524" r="3" fill="#A8D8E8"/>
  <circle cx="984" cy="527" r="3.5" fill="#B0E0F0"/>
  <line x1="990" y1="524" x2="989" y2="535" stroke="#4A8828" stroke-width="1" opacity="0.7"/>

  <!-- ===================== FALLEN LEAVES ===================== -->
  <ellipse cx="400" cy="455" rx="8" ry="5" fill="#C85A18" opacity="0.7" transform="rotate(35 400 455)"/>
  <ellipse cx="415" cy="448" rx="7" ry="4" fill="#D87020" opacity="0.6" transform="rotate(-20 415 448)"/>
  <ellipse cx="750" cy="620" rx="9" ry="5" fill="#B04A10" opacity="0.65" transform="rotate(55 750 620)"/>
  <ellipse cx="760" cy="630" rx="7" ry="4" fill="#C86020" opacity="0.6" transform="rotate(-35 760 630)"/>
  <ellipse cx="620" cy="740" rx="8" ry="4.5" fill="#D06818" opacity="0.7" transform="rotate(18 620 740)"/>
  <ellipse cx="520" cy="395" rx="7" ry="4" fill="#A83C08" opacity="0.6" transform="rotate(-45 520 395)"/>
  <ellipse cx="880" cy="330" rx="8" ry="5" fill="#C05A15" opacity="0.65" transform="rotate(25 880 330)"/>
  <ellipse cx="892" cy="338" rx="6" ry="3.5" fill="#D06820" opacity="0.6" transform="rotate(-60 892 338)"/>

  <!-- ===================== TREE ROOTS (exposed) ===================== -->
  <!-- Root cluster near NW tree -->
  <path d="M155,165 Q175,172 185,168 Q200,164 208,170" fill="none" stroke="#4A2E10" stroke-width="4" stroke-linecap="round"/>
  <path d="M148,172 Q162,182 175,185 Q190,188 198,182" fill="none" stroke="#3E2808" stroke-width="3.5" stroke-linecap="round"/>
  <path d="M160,155 Q168,148 178,150 Q190,153 195,148" fill="none" stroke="#4A3010" stroke-width="3" stroke-linecap="round"/>

  <!-- Root cluster near SW tree -->
  <path d="M150,820 Q170,826 180,822 Q195,818 203,824" fill="none" stroke="#4A2E10" stroke-width="4" stroke-linecap="round"/>
  <path d="M143,828 Q158,838 170,840 Q185,843 193,838" fill="none" stroke="#3E2808" stroke-width="3.5" stroke-linecap="round"/>

  <!-- ===================== AMBIENT FOREST VIGNETTE ===================== -->
  <rect x="0" y="0" width="1400" height="1000" fill="url(#forestVignette)"/>

  <!-- Forest edge darkening blend (makes the edge trees feel denser) -->
  <rect x="0" y="0" width="1400" height="160" fill="#0A1805" opacity="0.45"/>
  <rect x="0" y="840" width="1400" height="160" fill="#0A1805" opacity="0.45"/>
  <rect x="0" y="0" width="160" height="1000" fill="#0A1805" opacity="0.40"/>
  <rect x="1240" y="0" width="160" height="1000" fill="#0A1805" opacity="0.40"/>

  <!-- ===================== GRID OVERLAY ===================== -->
  <rect x="0" y="0" width="1400" height="1000" fill="url(#grid)"/>
</svg>
