<svg xmlns="http://www.w3.org/2000/svg" viewBox="0 0 1400 1000" width="1400" height="1000">
  <defs>
    <!-- Mahogany wood floor texture -->
    <filter id="woodTexture" x="0%" y="0%" width="100%" height="100%">
      <feTurbulence type="fractalNoise" baseFrequency="0.015 0.08" numOctaves="5" seed="42" result="noise"/>
      <feColorMatrix type="matrix"
        values="0.4 0.2 0 0 0.35
                0.2 0.1 0 0 0.15
                0   0   0 0 0.05
                0   0   0 1 0" in="noise" result="woodColor"/>
      <feComposite in="woodColor" in2="SourceGraphic" operator="multiply" result="woodMul"/>
      <feTurbulence type="turbulence" baseFrequency="0.003 0.001" numOctaves="2" seed="7" result="grain"/>
      <feDisplacementMap in="woodMul" in2="grain" scale="4" xChannelSelector="R" yChannelSelector="G"/>
    </filter>

    <!-- Stone wall texture -->
    <filter id="stoneTexture" x="0%" y="0%" width="100%" height="100%">
      <feTurbulence type="fractalNoise" baseFrequency="0.04" numOctaves="6" seed="13" result="noise"/>
      <feColorMatrix type="matrix"
        values="0.3 0.1 0 0 0.22
                0.3 0.1 0 0 0.20
                0.3 0.1 0 0 0.18
                0   0   0 1 0" in="noise" result="stoneColor"/>
      <feComposite in="stoneColor" in2="SourceGraphic" operator="multiply"/>
    </filter>

    <!-- Torch glow filter -->
    <filter id="torchGlow" x="-100%" y="-100%" width="300%" height="300%">
      <feGaussianBlur stdDeviation="18" result="blur"/>
      <feMerge>
        <feMergeNode in="blur"/>
        <feMergeNode in="blur"/>
        <feMergeNode in="SourceGraphic"/>
      </feMerge>
    </filter>

    <!-- Soft drop shadow -->
    <filter id="dropShadow" x="-20%" y="-20%" width="140%" height="140%">
      <feDropShadow dx="3" dy="5" stdDeviation="4" flood-color="#000000" flood-opacity="0.6"/>
    </filter>

    <!-- Wall inner shadow -->
    <filter id="innerShadow" x="0%" y="0%" width="100%" height="100%">
      <feGaussianBlur stdDeviation="12" result="blur"/>
      <feComposite in="SourceGraphic" in2="blur" operator="over"/>
    </filter>

    <!-- Fireplace emissive glow -->
    <filter id="fireGlow" x="-150%" y="-150%" width="400%" height="400%">
      <feGaussianBlur stdDeviation="30" result="blur"/>
      <feMerge>
        <feMergeNode in="blur"/>
        <feMergeNode in="blur"/>
        <feMergeNode in="SourceGraphic"/>
      </feMerge>
    </filter>

    <!-- Planks floor pattern with grain -->
    <pattern id="planks" x="0" y="0" width="80" height="160" patternUnits="userSpaceOnUse">
      <rect width="80" height="160" fill="#7B3F1E"/>
      <!-- Plank board 1 -->
      <rect x="1" y="1" width="78" height="78" fill="#8B4A22" rx="0.5"/>
      <rect x="1" y="81" width="78" height="78" fill="#7A3A1A" rx="0.5"/>
      <!-- Grain lines board 1 -->
      <line x1="10" y1="1" x2="12" y2="79" stroke="#9B5530" stroke-width="0.6" opacity="0.5"/>
      <line x1="25" y1="1" x2="22" y2="79" stroke="#6B3010" stroke-width="0.4" opacity="0.4"/>
      <line x1="45" y1="1" x2="48" y2="79" stroke="#9B5530" stroke-width="0.5" opacity="0.3"/>
      <line x1="63" y1="1" x2="60" y2="79" stroke="#6B3010" stroke-width="0.6" opacity="0.4"/>
      <!-- Grain lines board 2 -->
      <line x1="8" y1="81" x2="11" y2="159" stroke="#8B4520" stroke-width="0.5" opacity="0.4"/>
      <line x1="30" y1="81" x2="27" y2="159" stroke="#6B3010" stroke-width="0.6" opacity="0.5"/>
      <line x1="55" y1="81" x2="58" y2="159" stroke="#9B5530" stroke-width="0.4" opacity="0.3"/>
      <!-- Knot board 1 -->
      <ellipse cx="55" cy="35" rx="4" ry="3" fill="#5A2A08" opacity="0.6"/>
      <ellipse cx="55" cy="35" rx="2.5" ry="2" fill="#3A1A05" opacity="0.5"/>
      <!-- Board gap shadows -->
      <rect y="79" width="80" height="3" fill="#3A1A08" opacity="0.8"/>
    </pattern>

    <!-- Stone block pattern for walls -->
    <pattern id="stoneBlocks" x="0" y="0" width="140" height="70" patternUnits="userSpaceOnUse">
      <rect width="140" height="70" fill="#4A4540"/>
      <!-- Stone blocks row 1 -->
      <rect x="2" y="2" width="66" height="32" fill="#5C5550" rx="1"/>
      <rect x="72" y="2" width="66" height="32" fill="#524E4A" rx="1"/>
      <!-- Stone blocks row 2 (offset) -->
      <rect x="2" y="38" width="31" height="30" fill="#585450" rx="1"/>
      <rect x="37" y="38" width="66" height="30" fill="#4E4A46" rx="1"/>
      <rect x="107" y="38" width="31" height="30" fill="#565250" rx="1"/>
      <!-- Mortar lines -->
      <rect y="35" width="140" height="4" fill="#302E2C" opacity="0.9"/>
      <rect x="69" y="0" width="4" height="35" fill="#302E2C" opacity="0.9"/>
      <rect x="34" y="35" width="4" height="35" fill="#302E2C" opacity="0.9"/>
      <rect x="104" y="35" width="4" height="35" fill="#302E2C" opacity="0.9"/>
      <!-- Surface detail cracks -->
      <line x1="10" y1="5" x2="14" y2="20" stroke="#3A3835" stroke-width="0.5" opacity="0.6"/>
      <line x1="85" y1="8" x2="90" y2="25" stroke="#3A3835" stroke-width="0.4" opacity="0.5"/>
      <line x1="45" y1="42" x2="48" y2="62" stroke="#3A3835" stroke-width="0.5" opacity="0.6"/>
    </pattern>

    <!-- Persian rug pattern -->
    <pattern id="rugPattern" x="0" y="0" width="40" height="40" patternUnits="userSpaceOnUse">
      <rect width="40" height="40" fill="#8B1A1A"/>
      <rect x="4" y="4" width="32" height="32" fill="none" stroke="#C4960A" stroke-width="1.5" opacity="0.8"/>
      <rect x="8" y="8" width="24" height="24" fill="none" stroke="#8B1A1A" stroke-width="1"/>
      <polygon points="20,4 24,10 20,8 16,10" fill="#C4960A" opacity="0.7"/>
      <polygon points="20,36 24,30 20,32 16,30" fill="#C4960A" opacity="0.7"/>
      <polygon points="4,20 10,16 8,20 10,24" fill="#C4960A" opacity="0.7"/>
      <polygon points="36,20 30,16 32,20 30,24" fill="#C4960A" opacity="0.7"/>
      <rect x="17" y="17" width="6" height="6" fill="#C4960A" opacity="0.6"/>
      <line x1="0" y1="0" x2="40" y2="0" stroke="#6B0A0A" stroke-width="0.8" opacity="0.5"/>
      <line x1="0" y1="0" x2="0" y2="40" stroke="#6B0A0A" stroke-width="0.8" opacity="0.5"/>
    </pattern>

    <!-- Torch light radial gradients -->
    <radialGradient id="torchLight1" cx="50%" cy="50%" r="50%">
      <stop offset="0%" stop-color="#FFDD88" stop-opacity="0.55"/>
      <stop offset="30%" stop-color="#FF9922" stop-opacity="0.30"/>
      <stop offset="65%" stop-color="#FF6600" stop-opacity="0.12"/>
      <stop offset="100%" stop-color="#CC3300" stop-opacity="0"/>
    </radialGradient>
    <radialGradient id="torchLight2" cx="50%" cy="50%" r="50%">
      <stop offset="0%" stop-color="#FFEE99" stop-opacity="0.50"/>
      <stop offset="35%" stop-color="#FFAA33" stop-opacity="0.28"/>
      <stop offset="70%" stop-color="#FF7700" stop-opacity="0.10"/>
      <stop offset="100%" stop-color="#CC3300" stop-opacity="0"/>
    </radialGradient>
    <radialGradient id="fireLight" cx="50%" cy="60%" r="50%">
      <stop offset="0%" stop-color="#FFEE66" stop-opacity="0.70"/>
      <stop offset="25%" stop-color="#FF8800" stop-opacity="0.45"/>
      <stop offset="60%" stop-color="#FF4400" stop-opacity="0.20"/>
      <stop offset="100%" stop-color="#880000" stop-opacity="0"/>
    </radialGradient>

    <!-- Bar counter gradient -->
    <linearGradient id="barGrad" x1="0%" y1="0%" x2="0%" y2="100%">
      <stop offset="0%" stop-color="#A0622A"/>
      <stop offset="40%" stop-color="#7B4515"/>
      <stop offset="100%" stop-color="#4A2608"/>
    </linearGradient>
    <linearGradient id="barTop" x1="0%" y1="0%" x2="100%" y2="100%">
      <stop offset="0%" stop-color="#C8803A"/>
      <stop offset="50%" stop-color="#9B5820"/>
      <stop offset="100%" stop-color="#7B3E10"/>
    </linearGradient>

    <!-- Table surface gradient -->
    <radialGradient id="tableTop" cx="40%" cy="35%" r="60%">
      <stop offset="0%" stop-color="#A06030"/>
      <stop offset="60%" stop-color="#7A4018"/>
      <stop offset="100%" stop-color="#5A2A08"/>
    </radialGradient>

    <!-- Wall depth gradient (inside edge) -->
    <linearGradient id="wallDepthTop" x1="0%" y1="0%" x2="0%" y2="100%">
      <stop offset="0%" stop-color="#1A1610" stop-opacity="0.8"/>
      <stop offset="100%" stop-color="#1A1610" stop-opacity="0"/>
    </linearGradient>
    <linearGradient id="wallDepthLeft" x1="0%" y1="0%" x2="100%" y2="0%">
      <stop offset="0%" stop-color="#1A1610" stop-opacity="0.8"/>
      <stop offset="100%" stop-color="#1A1610" stop-opacity="0"/>
    </linearGradient>
    <linearGradient id="wallDepthRight" x1="100%" y1="0%" x2="0%" y2="0%">
      <stop offset="0%" stop-color="#1A1610" stop-opacity="0.8"/>
      <stop offset="100%" stop-color="#1A1610" stop-opacity="0"/>
    </linearGradient>
    <linearGradient id="wallDepthBottom" x1="0%" y1="100%" x2="0%" y2="0%">
      <stop offset="0%" stop-color="#1A1610" stop-opacity="0.8"/>
      <stop offset="100%" stop-color="#1A1610" stop-opacity="0"/>
    </linearGradient>

    <!-- Fireplace stone gradient -->
    <linearGradient id="fireplaceGrad" x1="0%" y1="0%" x2="100%" y2="100%">
      <stop offset="0%" stop-color="#5A5450"/>
      <stop offset="100%" stop-color="#2A2522"/>
    </linearGradient>

    <!-- Ambient dark overlay for mood -->
    <radialGradient id="ambientDark" cx="50%" cy="50%" r="70%">
      <stop offset="0%" stop-color="#1A0E05" stop-opacity="0"/>
      <stop offset="70%" stop-color="#1A0E05" stop-opacity="0.2"/>
      <stop offset="100%" stop-color="#0A0605" stop-opacity="0.55"/>
    </radialGradient>

    <!-- Grid -->
    <pattern id="grid" x="0" y="0" width="70" height="70" patternUnits="userSpaceOnUse">
      <path d="M 70 0 L 0 0 0 70" fill="none" stroke="rgba(0,0,0,0.15)" stroke-width="1"/>
    </pattern>

    <!-- Chair seat gradient -->
    <radialGradient id="chairSeat" cx="40%" cy="35%" r="60%">
      <stop offset="0%" stop-color="#8B5020"/>
      <stop offset="100%" stop-color="#4A2208"/>
    </radialGradient>

    <!-- Bottle gradients -->
    <linearGradient id="bottle1" x1="0%" y1="0%" x2="100%" y2="0%">
      <stop offset="0%" stop-color="#1A4A1A"/>
      <stop offset="50%" stop-color="#2E8B2E"/>
      <stop offset="100%" stop-color="#1A4A1A"/>
    </linearGradient>
    <linearGradient id="bottle2" x1="0%" y1="0%" x2="100%" y2="0%">
      <stop offset="0%" stop-color="#4A1A1A"/>
      <stop offset="50%" stop-color="#8B3A2E"/>
      <stop offset="100%" stop-color="#4A1A1A"/>
    </linearGradient>
    <linearGradient id="bottle3" x1="0%" y1="0%" x2="100%" y2="0%">
      <stop offset="0%" stop-color="#3A3A1A"/>
      <stop offset="50%" stop-color="#7A7A2E"/>
      <stop offset="100%" stop-color="#3A3A1A"/>
    </linearGradient>
  </defs>

  <!-- ===================== WALLS ===================== -->
  <!-- Outer stone walls -->
  <rect x="0" y="0" width="1400" height="1000" fill="url(#stoneBlocks)" filter="url(#stoneTexture)"/>

  <!-- Wall top face (3D thickness illusion) -->
  <rect x="90" y="90" width="1220" height="20" fill="#6A6460" opacity="0.7"/>
  <rect x="90" y="90" width="20" height="820" fill="#6A6460" opacity="0.7"/>
  <rect x="1290" y="90" width="20" height="820" fill="#4A4440" opacity="0.7"/>
  <rect x="90" y="890" width="1220" height="20" fill="#4A4440" opacity="0.7"/>

  <!-- ===================== FLOOR ===================== -->
  <!-- Main mahogany floor -->
  <rect x="110" y="110" width="1180" height="780" fill="url(#planks)" filter="url(#woodTexture)"/>

  <!-- Floor ambient darkness -->
  <rect x="110" y="110" width="1180" height="780" fill="url(#ambientDark)" opacity="0.5"/>

  <!-- Wall inner shadow edges -->
  <rect x="110" y="110" width="1180" height="60" fill="url(#wallDepthTop)"/>
  <rect x="110" y="110" width="60" height="780" fill="url(#wallDepthLeft)"/>
  <rect x="1230" y="110" width="60" height="780" fill="url(#wallDepthRight)"/>
  <rect x="110" y="830" width="1180" height="60" fill="url(#wallDepthBottom)"/>

  <!-- ===================== PERSIAN RUG ===================== -->
  <!-- Rug shadow -->
  <rect x="378" y="413" width="504" height="304" rx="6" fill="#000000" opacity="0.35" filter="url(#dropShadow)"/>
  <!-- Rug main -->
  <rect x="370" y="405" width="500" height="300" fill="url(#rugPattern)" rx="4"/>
  <!-- Rug border outer -->
  <rect x="370" y="405" width="500" height="300" fill="none" stroke="#C4960A" stroke-width="6" rx="4" opacity="0.85"/>
  <!-- Rug border inner -->
  <rect x="382" y="417" width="476" height="276" fill="none" stroke="#8B1A1A" stroke-width="3" rx="2" opacity="0.6"/>
  <!-- Rug fringe left -->
  <line x1="370" y1="420" x2="358" y2="420" stroke="#C4960A" stroke-width="1.5" opacity="0.6"/>
  <line x1="370" y1="430" x2="357" y2="430" stroke="#C4960A" stroke-width="1.5" opacity="0.6"/>
  <line x1="370" y1="440" x2="358" y2="440" stroke="#C4960A" stroke-width="1.5" opacity="0.6"/>
  <line x1="370" y1="450" x2="357" y2="450" stroke="#C4960A" stroke-width="1.5" opacity="0.6"/>
  <line x1="370" y1="460" x2="358" y2="460" stroke="#C4960A" stroke-width="1.5" opacity="0.6"/>
  <line x1="370" y1="470" x2="357" y2="470" stroke="#C4960A" stroke-width="1.5" opacity="0.6"/>
  <!-- Rug fringe right -->
  <line x1="870" y1="420" x2="882" y2="420" stroke="#C4960A" stroke-width="1.5" opacity="0.6"/>
  <line x1="870" y1="430" x2="883" y2="430" stroke="#C4960A" stroke-width="1.5" opacity="0.6"/>
  <line x1="870" y1="440" x2="882" y2="440" stroke="#C4960A" stroke-width="1.5" opacity="0.6"/>
  <line x1="870" y1="450" x2="883" y2="450" stroke="#C4960A" stroke-width="1.5" opacity="0.6"/>

  <!-- ===================== FIREPLACE (North wall center) ===================== -->
  <!-- Fireplace emissive glow on floor -->
  <ellipse cx="700" cy="180" rx="200" ry="120" fill="url(#fireLight)" opacity="0.8" filter="url(#fireGlow)"/>

  <!-- Fireplace surround -->
  <rect x="610" y="110" width="180" height="85" fill="url(#fireplaceGrad)" rx="2"/>
  <!-- Fireplace mantle (3D depth) -->
  <rect x="598" y="108" width="204" height="18" fill="#6A6258" rx="2"/>
  <rect x="598" y="108" width="204" height="18" fill="none" stroke="#7A7268" stroke-width="1"/>
  <!-- Mantle top highlight -->
  <rect x="598" y="108" width="204" height="4" fill="#8A8278" opacity="0.7"/>
  <!-- Fireplace opening -->
  <rect x="628" y="120" width="144" height="68" fill="#1A0E05" rx="2"/>
  <!-- Fire glow inside -->
  <ellipse cx="700" cy="178" rx="55" ry="28" fill="#FF8800" opacity="0.7"/>
  <ellipse cx="700" cy="180" rx="35" ry="18" fill="#FFCC00" opacity="0.8"/>
  <ellipse cx="700" cy="183" rx="18" ry="10" fill="#FFFFFF" opacity="0.5"/>
  <!-- Flame shapes -->
  <path d="M680,188 Q685,158 700,148 Q715,158 720,188 Z" fill="#FF6600" opacity="0.7"/>
  <path d="M688,188 Q693,162 700,155 Q707,162 712,188 Z" fill="#FFCC00" opacity="0.8"/>
  <path d="M694,188 Q698,168 700,163 Q702,168 706,188 Z" fill="#FFFFFF" opacity="0.6"/>
  <!-- Soot marks -->
  <rect x="628" y="120" width="144" height="12" fill="#0A0605" opacity="0.6"/>
  <!-- Ash on floor -->
  <ellipse cx="700" cy="192" rx="40" ry="8" fill="#3A3530" opacity="0.5"/>
  <!-- Fireplace side stones detail -->
  <line x1="628" y1="130" x2="628" y2="188" stroke="#2A2520" stroke-width="1" opacity="0.8"/>
  <line x1="772" y1="130" x2="772" y2="188" stroke="#2A2520" stroke-width="1" opacity="0.8"/>
  <line x1="628" y1="150" x2="772" y2="150" stroke="#2A2520" stroke-width="0.5" opacity="0.5"/>

  <!-- ===================== TABLES ===================== -->
  <!-- TABLE 1: Center-left -->
  <!-- Shadow -->
  <ellipse cx="403" cy="562" rx="78" ry="22" fill="#000000" opacity="0.40"/>
  <!-- Table base/leg shadow -->
  <ellipse cx="403" cy="575" rx="12" ry="6" fill="#1A0A02" opacity="0.5"/>
  <!-- Table rim (3D thickness) -->
  <ellipse cx="400" cy="557" rx="75" ry="22" fill="#5A2E0A"/>
  <!-- Table top -->
  <ellipse cx="400" cy="548" rx="75" ry="22" fill="url(#tableTop)"/>
  <!-- Table surface highlight -->
  <ellipse cx="385" cy="542" rx="35" ry="10" fill="#C08040" opacity="0.25"/>
  <!-- Wooden ring detail on table -->
  <ellipse cx="400" cy="548" rx="60" ry="17" fill="none" stroke="#6A3818" stroke-width="1" opacity="0.5"/>
  <ellipse cx="400" cy="548" rx="40" ry="11" fill="none" stroke="#6A3818" stroke-width="0.5" opacity="0.4"/>
  <!-- Mugs on table -->
  <rect x="378" y="535" width="16" height="14" rx="2" fill="#8B7355"/>
  <rect x="378" y="533" width="16" height="4" rx="1" fill="#A08870"/>
  <rect x="394" y="537" width="4" height="8" rx="1" fill="#7B6345"/>
  <!-- Mug 2 -->
  <rect x="405" y="538" width="14" height="12" rx="2" fill="#7B6345"/>
  <rect x="405" y="536" width="14" height="4" rx="1" fill="#9B8365"/>
  <rect x="419" y="540" width="3" height="6" rx="1" fill="#6B5335"/>
  <!-- Candle on table -->
  <rect x="394" y="526" width="6" height="16" rx="1" fill="#E8E0C8"/>
  <ellipse cx="397" cy="526" rx="3" ry="2" fill="#F8F0D8"/>
  <line x1="397" y1="524" x2="396" y2="519" stroke="#4A3A1A" stroke-width="1"/>
  <ellipse cx="396" cy="519" rx="3" ry="4" fill="#FF9922" opacity="0.7"/>
  <ellipse cx="396" cy="519" rx="1.5" ry="2.5" fill="#FFEE66" opacity="0.8"/>

  <!-- CHAIRS around Table 1 (top-down, 3D rim effect) -->
  <!-- Chair North -->
  <ellipse cx="400" cy="495" rx="22" ry="10" fill="#3A1808" opacity="0.35"/>
  <ellipse cx="400" cy="492" rx="22" ry="10" fill="#5A2E0A"/>
  <ellipse cx="400" cy="489" rx="22" ry="10" fill="url(#chairSeat)"/>
  <rect x="388" y="479" width="24" height="6" rx="2" fill="#4A2008"/><!-- Chair back -->
  <!-- Chair South -->
  <ellipse cx="400" cy="625" rx="22" ry="10" fill="#3A1808" opacity="0.35"/>
  <ellipse cx="400" cy="622" rx="22" ry="10" fill="#5A2E0A"/>
  <ellipse cx="400" cy="619" rx="22" ry="10" fill="url(#chairSeat)"/>
  <rect x="388" y="629" width="24" height="6" rx="2" fill="#4A2008"/>
  <!-- Chair West -->
  <ellipse cx="310" cy="548" rx="10" ry="22" fill="#3A1808" opacity="0.35"/>
  <ellipse cx="308" cy="548" rx="10" ry="22" fill="#5A2E0A"/>
  <ellipse cx="305" cy="548" rx="10" ry="22" fill="url(#chairSeat)"/>
  <rect x="295" y="536" width="6" height="24" rx="2" fill="#4A2008"/>
  <!-- Chair East -->
  <ellipse cx="490" cy="548" rx="10" ry="22" fill="#3A1808" opacity="0.35"/>
  <ellipse cx="492" cy="548" rx="10" ry="22" fill="#5A2E0A"/>
  <ellipse cx="495" cy="548" rx="10" ry="22" fill="url(#chairSeat)"/>
  <rect x="499" y="536" width="6" height="24" rx="2" fill="#4A2008"/>

  <!-- TABLE 2: Center-right -->
  <ellipse cx="903" cy="562" rx="78" ry="22" fill="#000000" opacity="0.40"/>
  <ellipse cx="903" cy="575" rx="12" ry="6" fill="#1A0A02" opacity="0.5"/>
  <ellipse cx="900" cy="557" rx="75" ry="22" fill="#5A2E0A"/>
  <ellipse cx="900" cy="548" rx="75" ry="22" fill="url(#tableTop)"/>
  <ellipse cx="885" cy="542" rx="35" ry="10" fill="#C08040" opacity="0.25"/>
  <ellipse cx="900" cy="548" rx="60" ry="17" fill="none" stroke="#6A3818" stroke-width="1" opacity="0.5"/>
  <!-- Playing cards on table -->
  <rect x="875" y="535" width="22" height="16" rx="1" fill="#F5F0E8" transform="rotate(-15 886 543)"/>
  <rect x="875" y="535" width="22" height="16" rx="1" fill="none" stroke="#C0B8A8" stroke-width="0.5" transform="rotate(-15 886 543)"/>
  <rect x="882" y="533" width="22" height="16" rx="1" fill="#F5F0E8" transform="rotate(5 893 541)"/>
  <rect x="882" y="533" width="22" height="16" rx="1" fill="none" stroke="#C0B8A8" stroke-width="0.5" transform="rotate(5 893 541)"/>
  <!-- Dice on table -->
  <rect x="918" y="537" width="12" height="12" rx="2" fill="#E8E0D0" transform="rotate(20 924 543)"/>
  <circle cx="921" cy="540" r="1.2" fill="#2A2018"/>
  <circle cx="927" cy="546" r="1.2" fill="#2A2018"/>
  <!-- Mug -->
  <rect x="905" y="537" width="12" height="10" rx="2" fill="#8B7355"/>
  <rect x="905" y="535" width="12" height="4" rx="1" fill="#A08870"/>

  <!-- Chairs Table 2 -->
  <ellipse cx="900" cy="495" rx="22" ry="10" fill="#3A1808" opacity="0.35"/>
  <ellipse cx="900" cy="492" rx="22" ry="10" fill="#5A2E0A"/>
  <ellipse cx="900" cy="489" rx="22" ry="10" fill="url(#chairSeat)"/>
  <rect x="888" y="479" width="24" height="6" rx="2" fill="#4A2008"/>
  <ellipse cx="900" cy="625" rx="22" ry="10" fill="#3A1808" opacity="0.35"/>
  <ellipse cx="900" cy="622" rx="22" ry="10" fill="#5A2E0A"/>
  <ellipse cx="900" cy="619" rx="22" ry="10" fill="url(#chairSeat)"/>
  <rect x="888" y="629" width="24" height="6" rx="2" fill="#4A2008"/>
  <ellipse cx="810" cy="548" rx="10" ry="22" fill="#3A1808" opacity="0.35"/>
  <ellipse cx="808" cy="548" rx="10" ry="22" fill="#5A2E0A"/>
  <ellipse cx="805" cy="548" rx="10" ry="22" fill="url(#chairSeat)"/>
  <rect x="795" y="536" width="6" height="24" rx="2" fill="#4A2008"/>
  <ellipse cx="990" cy="548" rx="10" ry="22" fill="#3A1808" opacity="0.35"/>
  <ellipse cx="992" cy="548" rx="10" ry="22" fill="#5A2E0A"/>
  <ellipse cx="995" cy="548" rx="10" ry="22" fill="url(#chairSeat)"/>
  <rect x="999" y="536" width="6" height="24" rx="2" fill="#4A2008"/>

  <!-- TABLE 3: Small corner table (south-east) -->
  <ellipse cx="1153" cy="762" rx="58" ry="17" fill="#000000" opacity="0.40"/>
  <ellipse cx="1150" cy="757" rx="58" ry="17" fill="#5A2E0A"/>
  <ellipse cx="1150" cy="750" rx="58" ry="17" fill="url(#tableTop)"/>
  <ellipse cx="1137" cy="744" rx="28" ry="8" fill="#C08040" opacity="0.2"/>
  <!-- Chairs -->
  <ellipse cx="1150" cy="700" rx="20" ry="9" fill="#3A1808" opacity="0.35"/>
  <ellipse cx="1150" cy="697" rx="20" ry="9" fill="#5A2E0A"/>
  <ellipse cx="1150" cy="694" rx="20" ry="9" fill="url(#chairSeat)"/>
  <rect x="1140" y="685" width="20" height="5" rx="2" fill="#4A2008"/>
  <ellipse cx="1080" cy="750" rx="9" ry="20" fill="#3A1808" opacity="0.35"/>
  <ellipse cx="1078" cy="750" rx="9" ry="20" fill="#5A2E0A"/>
  <ellipse cx="1075" cy="750" rx="9" ry="20" fill="url(#chairSeat)"/>
  <rect x="1066" y="740" width="5" height="20" rx="2" fill="#4A2008"/>

  <!-- ===================== BAR COUNTER ===================== -->
  <!-- Bar shadow -->
  <rect x="115" y="718" width="520" height="158" rx="4" fill="#000000" opacity="0.45"/>
  <!-- Bar front face (3D) -->
  <rect x="112" y="715" width="520" height="160" rx="4" fill="url(#barGrad)"/>
  <!-- Bar top surface -->
  <rect x="112" y="715" width="520" height="30" rx="4" fill="url(#barTop)"/>
  <!-- Bar top surface highlight -->
  <rect x="118" y="716" width="508" height="8" rx="2" fill="#D8A060" opacity="0.35"/>
  <!-- Bar front decorative trim -->
  <rect x="112" y="742" width="520" height="4" fill="#6A3A10" opacity="0.7"/>
  <rect x="112" y="830" width="520" height="6" fill="#4A2208" opacity="0.8"/>
  <!-- Bar panel details -->
  <rect x="130" y="750" width="80" height="70" rx="3" fill="#5A2E0A" opacity="0.5"/>
  <rect x="230" y="750" width="80" height="70" rx="3" fill="#5A2E0A" opacity="0.5"/>
  <rect x="330" y="750" width="80" height="70" rx="3" fill="#5A2E0A" opacity="0.5"/>
  <rect x="430" y="750" width="80" height="70" rx="3" fill="#5A2E0A" opacity="0.5"/>
  <!-- Panel inner shadow top -->
  <rect x="130" y="750" width="80" height="8" rx="1" fill="#2A1005" opacity="0.4"/>
  <rect x="230" y="750" width="80" height="8" rx="1" fill="#2A1005" opacity="0.4"/>
  <rect x="330" y="750" width="80" height="8" rx="1" fill="#2A1005" opacity="0.4"/>
  <rect x="430" y="750" width="80" height="8" rx="1" fill="#2A1005" opacity="0.4"/>

  <!-- BOTTLES on bar top -->
  <!-- Bottle row -->
  <rect x="140" y="695" width="10" height="24" rx="3" fill="url(#bottle1)"/>
  <rect x="140" y="692" width="10" height="5" rx="2" fill="#2A5A2A"/>
  <rect x="143" y="688" width="4" height="8" rx="1" fill="#3A6A3A"/>
  <ellipse cx="145" cy="701" rx="3" ry="4" fill="#4AAA4A" opacity="0.3"/>

  <rect x="158" y="698" width="10" height="20" rx="3" fill="url(#bottle2)"/>
  <rect x="158" y="695" width="10" height="5" rx="2" fill="#5A2A2A"/>
  <rect x="161" y="691" width="4" height="7" rx="1" fill="#6A3A3A"/>

  <rect x="175" y="694" width="12" height="26" rx="3" fill="url(#bottle3)"/>
  <rect x="175" y="691" width="12" height="5" rx="2" fill="#4A4A2A"/>
  <rect x="179" y="687" width="4" height="8" rx="1" fill="#5A5A3A"/>
  <ellipse cx="181" cy="700" rx="4" ry="5" fill="#8A8A4A" opacity="0.3"/>

  <rect x="196" y="697" width="10" height="22" rx="3" fill="url(#bottle1)"/>
  <rect x="196" y="694" width="10" height="5" rx="2" fill="#2A5A2A"/>
  <rect x="199" y="690" width="4" height="7" rx="1" fill="#3A6A3A"/>

  <rect x="215" y="699" width="8" height="18" rx="2" fill="url(#bottle2)"/>
  <rect x="215" y="697" width="8" height="4" rx="1" fill="#5A2A2A"/>
  <rect x="217" y="694" width="4" height="6" rx="1" fill="#6A3A3A"/>

  <!-- Tankards on bar -->
  <rect x="265" y="697" width="18" height="20" rx="2" fill="#8B7355"/>
  <rect x="265" y="695" width="18" height="5" rx="1" fill="#A08870"/>
  <rect x="283" y="700" width="5" height="10" rx="1" fill="#7B6345"/>
  <rect x="290" y="699" width="18" height="18" rx="2" fill="#7B6345"/>
  <rect x="290" y="697" width="18" height="5" rx="1" fill="#9B8365"/>

  <!-- Bread loaf on bar -->
  <ellipse cx="360" cy="708" rx="22" ry="10" fill="#C8903A" opacity="0.9"/>
  <ellipse cx="360" cy="706" rx="22" ry="10" fill="#D8A050"/>
  <line x1="345" y1="706" x2="375" y2="706" stroke="#C08040" stroke-width="1" opacity="0.5"/>
  <path d="M348,706 Q360,698 372,706" fill="none" stroke="#E0B060" stroke-width="0.8" opacity="0.4"/>

  <!-- ===================== WALL TORCH SCONCES ===================== -->
  <!-- Torch 1: North-West wall -->
  <!-- Glow on floor/wall -->
  <ellipse cx="250" cy="200" rx="200" ry="140" fill="url(#torchLight1)" opacity="0.9"/>
  <!-- Sconce bracket -->
  <rect x="110" y="185" width="30" height="6" rx="2" fill="#5A5040"/>
  <rect x="138" y="178" width="8" height="20" rx="2" fill="#6A6050"/>
  <!-- Torch body -->
  <rect x="137" y="168" width="10" height="18" rx="1" fill="#8B6A3A"/>
  <!-- Flame -->
  <ellipse cx="142" cy="168" rx="8" ry="11" fill="#FF8800" opacity="0.8" filter="url(#torchGlow)"/>
  <ellipse cx="142" cy="168" rx="5" ry="8" fill="#FFCC00" opacity="0.9"/>
  <ellipse cx="142" cy="170" rx="3" ry="5" fill="#FFEE88" opacity="0.9"/>

  <!-- Torch 2: North-East wall -->
  <ellipse cx="1150" cy="200" rx="200" ry="140" fill="url(#torchLight2)" opacity="0.9"/>
  <rect x="1258" y="185" width="30" height="6" rx="2" fill="#5A5040"/>
  <rect x="1254" y="178" width="8" height="20" rx="2" fill="#6A6050"/>
  <rect x="1253" y="168" width="10" height="18" rx="1" fill="#8B6A3A"/>
  <ellipse cx="1258" cy="168" rx="8" ry="11" fill="#FF8800" opacity="0.8" filter="url(#torchGlow)"/>
  <ellipse cx="1258" cy="168" rx="5" ry="8" fill="#FFCC00" opacity="0.9"/>
  <ellipse cx="1258" cy="170" rx="3" ry="5" fill="#FFEE88" opacity="0.9"/>

  <!-- Torch 3: South-West wall -->
  <ellipse cx="250" cy="800" rx="200" ry="140" fill="url(#torchLight1)" opacity="0.9"/>
  <rect x="110" y="788" width="30" height="6" rx="2" fill="#5A5040"/>
  <rect x="138" y="780" width="8" height="20" rx="2" fill="#6A6050"/>
  <rect x="137" y="770" width="10" height="18" rx="1" fill="#8B6A3A"/>
  <ellipse cx="142" cy="770" rx="8" ry="11" fill="#FF8800" opacity="0.8" filter="url(#torchGlow)"/>
  <ellipse cx="142" cy="770" rx="5" ry="8" fill="#FFCC00" opacity="0.9"/>
  <ellipse cx="142" cy="772" rx="3" ry="5" fill="#FFEE88" opacity="0.9"/>

  <!-- Torch 4: East wall mid -->
  <ellipse cx="1350" cy="500" rx="160" ry="200" fill="url(#torchLight2)" opacity="0.85"/>
  <rect x="1262" y="488" width="30" height="6" rx="2" fill="#5A5040"/>
  <rect x="1258" y="480" width="8" height="20" rx="2" fill="#6A6050"/>
  <rect x="1257" y="470" width="10" height="18" rx="1" fill="#8B6A3A"/>
  <ellipse cx="1262" cy="470" rx="8" ry="11" fill="#FF8800" opacity="0.8" filter="url(#torchGlow)"/>
  <ellipse cx="1262" cy="470" rx="5" ry="8" fill="#FFCC00" opacity="0.9"/>
  <ellipse cx="1262" cy="472" rx="3" ry="5" fill="#FFEE88" opacity="0.9"/>

  <!-- ===================== DOOR (South wall) ===================== -->
  <!-- Door shadow -->
  <rect x="608" y="875" width="184" height="24" rx="2" fill="#000000" opacity="0.5"/>
  <!-- Door frame stone -->
  <rect x="610" y="878" width="180" height="20" fill="#5A5450"/>
  <!-- Door panels -->
  <rect x="615" y="878" width="82" height="20" fill="#6A4A20"/>
  <rect x="703" y="878" width="82" height="20" fill="#5A3A18"/>
  <!-- Door vertical split -->
  <line x1="700" y1="878" x2="700" y2="898" stroke="#2A1808" stroke-width="2"/>
  <!-- Door handle -->
  <circle cx="706" cy="888" r="3" fill="#C8A030"/>
  <circle cx="694" cy="888" r="3" fill="#B89020"/>

  <!-- ===================== WINDOWS (East wall, decorative) ===================== -->
  <!-- Window shutters suggestion -->
  <rect x="1290" y="320" width="20" height="80" fill="#4A3A1A"/>
  <rect x="1290" y="325" width="20" height="35" fill="#3A2A10"/>
  <rect x="1290" y="362" width="20" height="35" fill="#3A2A10"/>
  <line x1="1290" y1="343" x2="1310" y2="343" stroke="#2A1A08" stroke-width="1.5"/>
  <line x1="1300" y1="325" x2="1300" y2="360" stroke="#2A1A08" stroke-width="1.5"/>
  <line x1="1300" y1="362" x2="1300" y2="397" stroke="#2A1A08" stroke-width="1.5"/>

  <!-- ===================== STAIRS (NE corner) ===================== -->
  <!-- Stair shadow -->
  <rect x="1158" y="113" width="132" height="104" rx="2" fill="#000000" opacity="0.5"/>
  <!-- Stair steps descending (top-down view) -->
  <rect x="1160" y="115" width="128" height="20" fill="#5A5450"/>
  <rect x="1162" y="118" width="124" height="14" fill="#6A6460"/>
  <rect x="1160" y="135" width="128" height="18" fill="#524E4A"/>
  <rect x="1162" y="138" width="124" height="12" fill="#626260"/>
  <rect x="1160" y="153" width="128" height="18" fill="#4A4845"/>
  <rect x="1162" y="156" width="124" height="12" fill="#5A5855"/>
  <rect x="1160" y="171" width="128" height="18" fill="#424040"/>
  <rect x="1162" y="174" width="124" height="12" fill="#525050"/>
  <rect x="1160" y="189" width="128" height="18" fill="#3A3838"/>
  <!-- Step highlights -->
  <rect x="1162" y="135" width="124" height="2" fill="#7A7870" opacity="0.6"/>
  <rect x="1162" y="153" width="124" height="2" fill="#6A6860" opacity="0.6"/>
  <rect x="1162" y="171" width="124" height="2" fill="#5A5858" opacity="0.6"/>
  <!-- Stair railing -->
  <line x1="1160" y1="115" x2="1160" y2="207" stroke="#3A3028" stroke-width="4"/>
  <line x1="1288" y1="115" x2="1288" y2="207" stroke="#3A3028" stroke-width="4"/>

  <!-- ===================== DECORATIVE DETAILS ===================== -->
  <!-- Hanging sign over bar (painted wood board) -->
  <rect x="190" y="660" width="200" height="40" rx="4" fill="#6A4010" filter="url(#dropShadow)"/>
  <rect x="192" y="662" width="196" height="36" rx="3" fill="#7B4A1A"/>
  <rect x="194" y="664" width="192" height="8" rx="1" fill="#9B6030" opacity="0.5"/>
  <!-- Sign text approximation (decorative lines) -->
  <line x1="210" y1="676" x2="240" y2="676" stroke="#C8A050" stroke-width="2.5" opacity="0.8"/>
  <line x1="248" y1="676" x2="278" y2="676" stroke="#C8A050" stroke-width="2.5" opacity="0.8"/>
  <line x1="286" y1="676" x2="316" y2="676" stroke="#C8A050" stroke-width="2.5" opacity="0.8"/>
  <line x1="324" y1="676" x2="354" y2="676" stroke="#C8A050" stroke-width="2.5" opacity="0.8"/>
  <!-- Sign rope -->
  <line x1="230" y1="660" x2="225" y2="645" stroke="#8B7050" stroke-width="2"/>
  <line x1="360" y1="660" x2="365" y2="645" stroke="#8B7050" stroke-width="2"/>

  <!-- Barrel cluster (NE corner of bar) -->
  <!-- Barrel 1 -->
  <ellipse cx="660" cy="780" rx="32" ry="15" fill="#000000" opacity="0.35"/>
  <rect x="628" y="760" width="64" height="34" rx="8" fill="#7B4A1A"/>
  <ellipse cx="660" cy="760" rx="32" ry="15" fill="#9B6A2A"/>
  <ellipse cx="660" cy="760" rx="24" ry="11" fill="#8B5A20" opacity="0.6"/>
  <line x1="628" y1="774" x2="692" y2="774" stroke="#5A3010" stroke-width="2.5" opacity="0.7"/>
  <line x1="630" y1="763" x2="690" y2="763" stroke="#4A2808" stroke-width="1.5" opacity="0.5"/>
  <!-- Barrel 2 (smaller, behind) -->
  <rect x="695" y="763" width="50" height="26" rx="6" fill="#6A3A10"/>
  <ellipse cx="720" cy="763" rx="25" ry="12" fill="#8A5A20"/>
  <ellipse cx="720" cy="763" rx="18" ry="9" fill="#7A4A18" opacity="0.6"/>
  <line x1="695" y1="774" x2="745" y2="774" stroke="#4A2808" stroke-width="2" opacity="0.7"/>

  <!-- Mounted deer head (north wall decoration) -->
  <ellipse cx="700" cy="250" rx="25" ry="20" fill="#8B6A3A"/>
  <ellipse cx="700" cy="248" rx="22" ry="18" fill="#A07A4A"/>
  <!-- Antler left -->
  <path d="M685,240 Q675,220 670,210 Q665,200 668,195" fill="none" stroke="#6A4A1A" stroke-width="3" stroke-linecap="round"/>
  <path d="M675,225 Q668,215 665,208" fill="none" stroke="#6A4A1A" stroke-width="2" stroke-linecap="round"/>
  <!-- Antler right -->
  <path d="M715,240 Q725,220 730,210 Q735,200 732,195" fill="none" stroke="#6A4A1A" stroke-width="3" stroke-linecap="round"/>
  <path d="M725,225 Q732,215 735,208" fill="none" stroke="#6A4A1A" stroke-width="2" stroke-linecap="round"/>
  <!-- Eyes -->
  <circle cx="693" cy="245" r="3" fill="#1A0E05"/>
  <circle cx="707" cy="245" r="3" fill="#1A0E05"/>
  <!-- Nose -->
  <ellipse cx="700" cy="255" rx="4" ry="3" fill="#4A2A0A"/>
  <!-- Mount plaque -->
  <rect x="682" y="264" width="36" height="12" rx="2" fill="#5A3A1A"/>
  <rect x="684" y="266" width="32" height="8" rx="1" fill="#7A5A2A"/>

  <!-- ===================== GRID OVERLAY ===================== -->
  <rect x="0" y="0" width="1400" height="1000" fill="url(#grid)"/>

  <!-- Final vignette overlay for atmosphere -->
  <rect x="0" y="0" width="1400" height="1000" fill="url(#ambientDark)" opacity="0.4"/>
</svg>
